<svg version="1.1" id="Layer_1" xmlns="http://www.w3.org/2000/svg" xmlns:xlink="http://www.w3.org/1999/xlink" x="0px" y="0px"
	 width="100%" viewBox="0 0 2400 2400" enable-background="new 0 0 2400 2400" xml:space="preserve">
<path fill="#FEFFFE" opacity="1.000000" stroke="none" 
	d="
M1394.000000,2402.000000 
	C929.333313,2402.000000 465.666656,2402.000000 2.000000,2402.000000 
	C2.000000,1602.000000 2.000000,802.000000 2.000000,2.000000 
	C802.000000,2.000000 1602.000000,2.000000 2402.000000,2.000000 
	C2402.000000,802.000000 2402.000000,1602.000000 2402.000000,2402.000000 
	C2066.333252,2402.000000 1730.666626,2402.000000 1394.000000,2402.000000 
M2025.000000,2335.678955 
	C2128.532959,2335.678955 2232.066162,2335.678955 2335.700928,2335.678955 
	C2335.700928,1580.000244 2335.700928,825.588257 2335.700928,70.799217 
	C1580.984009,70.799217 826.889587,70.799217 72.881767,70.799217 
	C70.760399,82.528381 71.274895,2328.157715 73.472404,2335.678711 
	C723.209229,2335.678711 1373.104614,2335.678711 2025.000000,2335.678955 
z"/>
<path fill="#70B800" opacity="1.000000" stroke="none" 
	d="
M2024.000000,2335.678711 
	C1373.104614,2335.678711 723.209229,2335.678711 73.472404,2335.678711 
	C71.274895,2328.157715 70.760399,82.528381 72.881767,70.799217 
	C826.889587,70.799217 1580.984009,70.799217 2335.700928,70.799217 
	C2335.700928,825.588257 2335.700928,1580.000244 2335.700928,2335.678955 
	C2232.066162,2335.678955 2128.532959,2335.678955 2024.000000,2335.678711 
M543.579590,1887.098511 
	C528.238586,1881.078125 512.302368,1880.328003 496.350128,1883.041870 
	C462.771667,1888.754272 440.784821,1909.262817 428.247314,1939.920898 
	C413.487061,1976.014648 414.008850,2012.954102 426.897949,2049.349854 
	C439.160248,2083.975830 464.131866,2103.928711 501.100342,2107.188721 
	C530.018982,2109.738770 555.197876,2101.867188 573.769836,2078.036133 
	C574.392395,2077.237549 575.520264,2076.832764 578.152771,2075.097168 
	C577.404541,2090.895996 577.377747,2104.847656 575.900879,2118.643799 
	C574.589355,2130.895264 569.380615,2141.828125 558.953552,2149.232666 
	C544.487061,2159.505615 528.388733,2159.753174 512.036560,2155.309570 
	C498.010162,2151.497803 489.514740,2141.750244 485.317810,2128.028564 
	C485.147827,2127.472656 484.502960,2127.062256 484.059143,2126.561279 
	C464.734711,2126.561279 445.501190,2126.561279 425.394073,2126.561279 
	C425.850525,2141.816162 430.894592,2154.788086 440.157349,2166.179688 
	C450.346466,2178.710205 463.627350,2186.938232 478.780243,2191.820312 
	C513.353027,2202.958984 547.875366,2201.584473 581.587524,2188.625488 
	C609.129822,2178.038086 625.977783,2157.352783 631.938599,2128.524902 
	C634.214783,2117.516846 635.274536,2106.072998 635.327576,2094.820068 
	C635.635620,2029.488403 635.478516,1964.154663 635.478638,1898.821533 
	C635.478638,1895.570679 635.478638,1892.319946 635.478638,1888.600708 
	C615.712524,1888.600708 596.951050,1888.600708 577.259155,1888.600708 
	C577.259155,1897.637207 577.259155,1906.058838 577.259155,1914.480469 
	C568.030151,1902.994751 558.359863,1893.191162 543.579590,1887.098511 
M178.655396,2086.108398 
	C186.152039,2099.905273 197.316833,2109.829834 212.184647,2114.415527 
	C248.821808,2125.715088 283.161499,2121.627930 313.891296,2097.156738 
	C315.293976,2096.039795 316.864044,2095.132812 318.618103,2093.951416 
	C320.302704,2101.125000 321.783661,2107.431641 323.206299,2113.489746 
	C343.849854,2113.489746 363.382355,2113.489746 383.477020,2113.489746 
	C377.134888,2096.033936 377.112488,2078.343994 377.029083,2060.720947 
	C376.855743,2024.081055 377.005493,1987.439697 376.943512,1950.798950 
	C376.935089,1945.813599 376.728851,1940.800293 376.173462,1935.849365 
	C374.445221,1920.443115 367.465820,1907.729004 354.473572,1899.309937 
	C347.042511,1894.494507 338.695526,1890.578491 330.233490,1887.966187 
	C306.635742,1880.681152 282.316498,1880.588135 257.978363,1883.028931 
	C243.986404,1884.432373 230.458939,1887.940918 217.809586,1894.277954 
	C196.841888,1904.782471 183.574417,1921.355347 178.931000,1944.477417 
	C178.118576,1948.522705 178.154160,1952.738281 177.768311,1957.221436 
	C198.470871,1957.221436 217.985947,1957.221436 237.815186,1957.221436 
	C238.669037,1953.661377 239.336823,1950.417725 240.229599,1947.237183 
	C243.447144,1935.774902 250.539246,1927.805908 262.173096,1924.810425 
	C274.332611,1921.679932 286.662262,1921.939331 298.642365,1925.814575 
	C311.078705,1929.837402 316.897247,1939.157471 316.762299,1953.641479 
	C316.657837,1964.852295 311.360291,1971.180298 298.327454,1975.265015 
	C294.530823,1976.454956 290.607849,1977.384033 286.673706,1977.964966 
	C276.467560,1979.472046 266.220581,1980.701172 255.994278,1982.073975 
	C238.831696,1984.377930 221.669189,1986.668091 205.666367,1993.928589 
	C187.743713,2002.060059 176.153656,2015.524902 172.594406,2034.952148 
	C169.480606,2051.948242 170.318283,2068.798584 178.655396,2086.108398 
M1561.638184,1882.222290 
	C1550.697266,1884.962646 1539.249390,1886.462646 1528.914673,1890.686401 
	C1502.554688,1901.460083 1486.544678,1927.622314 1487.170776,1957.028076 
	C1495.915039,1957.028076 1504.670654,1957.028076 1513.511475,1957.028076 
	C1514.068604,1953.457275 1514.457397,1950.496704 1514.999390,1947.564697 
	C1519.289185,1924.355713 1532.490967,1910.678467 1555.430298,1906.507446 
	C1568.312256,1904.165161 1581.360229,1904.368652 1594.185669,1907.196533 
	C1618.168945,1912.484375 1629.356079,1926.648315 1629.280640,1951.106934 
	C1629.223877,1969.526978 1622.655762,1977.352173 1604.529663,1980.002808 
	C1593.654541,1981.593018 1582.706177,1982.675537 1571.803223,1984.083862 
	C1553.635864,1986.430786 1535.422852,1988.608643 1518.107300,1995.093994 
	C1490.380981,2005.478760 1477.775879,2023.104736 1476.990356,2052.487549 
	C1476.235718,2080.708984 1489.742310,2102.917725 1514.004517,2113.349854 
	C1553.494995,2130.329834 1598.225220,2118.355957 1623.756592,2083.996338 
	C1625.602661,2081.511719 1627.618896,2079.153809 1630.881470,2075.083252 
	C1631.478271,2081.236084 1631.709717,2085.123047 1632.254028,2088.965820 
	C1634.296753,2103.390869 1641.254883,2111.242920 1654.680542,2113.342285 
	C1662.886230,2114.625244 1671.223267,2114.730957 1679.204834,2111.398926 
	C1679.204834,2104.062012 1679.204834,2096.984131 1679.204834,2089.692871 
	C1676.121582,2089.972900 1673.808350,2090.356201 1671.493896,2090.362793 
	C1661.934326,2090.390137 1656.754150,2085.579346 1655.953125,2075.921631 
	C1655.733276,2073.271484 1655.842529,2070.592041 1655.842041,2067.926025 
	C1655.835938,2038.594116 1655.839966,2009.262085 1655.837524,1979.930176 
	C1655.836670,1969.930664 1656.037109,1959.925903 1655.781006,1949.932739 
	C1654.806763,1911.923584 1635.783081,1889.551880 1598.357056,1883.647705 
	C1586.942383,1881.847046 1575.135010,1882.535400 1561.638184,1882.222290 
M900.363403,2118.841309 
	C910.659973,2119.160156 921.036072,2120.452148 931.238342,2119.617676 
	C963.888794,2116.948730 988.712952,2101.726562 1003.114685,2071.614258 
	C1006.825317,2063.855713 1009.297974,2055.494629 1012.161926,2047.347900 
	C1012.986145,2045.003296 1013.190735,2042.440918 1013.719116,2039.778076 
	C1004.273621,2039.778076 995.701294,2039.778076 987.494263,2039.778076 
	C984.075500,2047.951172 981.347595,2055.826660 977.608337,2063.188477 
	C956.308289,2105.124268 899.745483,2104.213379 875.257202,2081.217285 
	C854.734802,2061.945312 847.880432,2037.342896 846.225159,2008.952271 
	C860.918396,2008.952271 874.800049,2008.952393 888.681641,2008.952393 
	C902.674500,2008.952393 916.667358,2008.952393 930.660217,2008.952393 
	C944.986206,2008.952393 959.312622,2009.018433 973.638123,2008.933472 
	C987.454102,2008.851440 1001.299072,2009.322388 1015.423706,2008.573608 
	C1015.975098,1980.164062 1011.939209,1954.089233 999.213379,1929.911011 
	C989.287598,1911.052979 975.047852,1896.333496 954.942688,1888.438477 
	C917.966797,1873.918579 860.403442,1878.912720 833.928833,1934.299194 
	C820.564148,1962.259033 817.885620,1991.780884 820.958740,2022.078613 
	C822.716553,2039.408325 827.028870,2056.144043 835.216980,2071.689453 
	C848.816284,2097.508057 869.700195,2113.470215 900.363403,2118.841309 
M1343.255981,1881.904053 
	C1305.219360,1883.916260 1278.165039,1902.827515 1263.299316,1937.264404 
	C1244.557251,1980.681152 1245.094727,2024.919922 1264.166748,2068.225830 
	C1275.395264,2093.721436 1295.170776,2110.509277 1322.539673,2117.164551 
	C1342.997192,2122.138916 1363.603394,2121.555908 1383.777222,2115.445312 
	C1415.500000,2105.837158 1442.280762,2071.678467 1443.315918,2039.744263 
	C1434.776855,2039.744263 1426.251709,2039.744263 1417.742554,2039.744263 
	C1415.200684,2046.298950 1412.941284,2052.521729 1410.396484,2058.625244 
	C1390.162354,2107.155518 1320.589966,2108.666016 1294.430420,2068.749023 
	C1285.291260,2054.803711 1279.809448,2039.664429 1277.887817,2023.194458 
	C1277.371094,2018.764771 1277.376221,2014.274170 1277.091064,2008.846191 
	C1333.953125,2008.846191 1389.486450,2008.846191 1445.894653,2008.846191 
	C1446.179321,1973.171631 1440.442993,1940.351440 1417.923218,1912.393555 
	C1406.238647,1897.887573 1391.060303,1888.386108 1372.917969,1884.501221 
	C1363.892090,1882.568481 1354.430908,1882.668579 1343.255981,1881.904053 
M2055.738770,1861.000000 
	C2055.850830,1944.614136 2055.962158,2028.228149 2056.092773,2111.842285 
	C2056.093262,2112.124023 2056.328857,2112.433350 2056.520264,2112.678711 
	C2056.722168,2112.937744 2057.002930,2113.135254 2057.451660,2113.543945 
	C2065.477295,2113.543945 2073.702148,2113.543945 2083.099609,2113.543945 
	C2083.099609,2109.567383 2083.099365,2105.989014 2083.099365,2102.410645 
	C2083.099121,2065.096680 2083.056396,2027.782593 2083.138672,1990.468872 
	C2083.153564,1983.815186 2083.339355,1977.125977 2084.037109,1970.515503 
	C2088.633301,1926.972900 2119.822754,1900.968994 2161.613281,1905.788086 
	C2182.237061,1908.166382 2195.789062,1919.291626 2202.191162,1939.118530 
	C2205.824463,1950.371338 2206.556396,1961.953125 2206.551758,1973.654053 
	C2206.534180,2016.631714 2206.544922,2059.609375 2206.544922,2102.587158 
	C2206.544922,2106.133057 2206.544922,2109.679199 2206.544922,2113.362549 
	C2216.049316,2113.362549 2224.208740,2113.362549 2232.819336,2113.362549 
	C2233.026367,2111.222168 2233.316406,2109.617676 2233.316895,2108.012939 
	C2233.329346,2060.038086 2233.477783,2012.062012 2233.199951,1964.088623 
	C2233.118652,1950.094116 2231.356689,1936.216064 2226.335938,1922.912476 
	C2219.539795,1904.905762 2207.106689,1892.887085 2188.933838,1886.734375 
	C2176.125732,1882.397949 2162.874268,1881.140015 2149.496582,1881.917725 
	C2123.600098,1883.423340 2102.879395,1894.340820 2088.695312,1916.558838 
	C2087.539062,1918.369995 2086.448975,1920.223022 2085.328369,1922.056519 
	C2084.633301,1921.903931 2083.938232,1921.751221 2083.243164,1921.598633 
	C2083.243164,1881.947144 2083.243164,1842.295532 2083.243164,1802.561646 
	C2073.424316,1802.561646 2064.942627,1802.561646 2055.739014,1802.561646 
	C2055.739014,1821.797363 2055.739014,1840.398682 2055.738770,1861.000000 
M1221.715698,2031.591431 
	C1215.763550,2016.141235 1204.654175,2005.408203 1189.996826,1998.536011 
	C1182.525269,1995.032959 1174.447021,1992.607300 1166.424561,1990.544067 
	C1153.214722,1987.147217 1139.652100,1985.043945 1126.571289,1981.248047 
	C1116.426270,1978.304077 1106.134155,1974.738525 1097.054810,1969.471436 
	C1073.656006,1955.897705 1079.119019,1926.027588 1095.939331,1915.127075 
	C1100.086548,1912.439575 1104.646362,1910.085938 1109.339966,1908.600586 
	C1123.290649,1904.185669 1137.557983,1903.834717 1151.753174,1907.338623 
	C1174.777466,1913.021729 1186.757202,1926.615479 1190.145752,1950.266479 
	C1190.318604,1951.473633 1190.877441,1952.625366 1191.170044,1953.534302 
	C1199.910278,1953.534302 1208.058838,1953.534302 1216.177979,1953.534302 
	C1216.501343,1922.765869 1200.203369,1898.480713 1172.425293,1887.785645 
	C1154.839478,1881.014893 1136.647095,1880.512085 1118.270020,1883.093262 
	C1103.225342,1885.206177 1089.370972,1890.329346 1076.813232,1899.230225 
	C1047.835815,1919.769653 1044.878662,1975.215576 1083.979614,1993.987427 
	C1088.772339,1996.288330 1093.565430,1998.853149 1098.646484,2000.239014 
	C1114.039551,2004.437988 1129.642456,2007.869019 1145.030273,2012.085449 
	C1155.589722,2014.978882 1166.199219,2018.027466 1176.284668,2022.214844 
	C1185.732544,2026.137451 1193.023315,2032.985718 1196.169556,2043.361694 
	C1201.121948,2059.694336 1195.034912,2075.922119 1179.584717,2085.577393 
	C1161.418091,2096.930176 1141.371704,2099.230957 1120.835571,2095.071533 
	C1095.427979,2089.925781 1079.679321,2074.464844 1075.076782,2048.465576 
	C1074.620972,2045.890869 1074.027588,2043.340454 1073.457642,2040.583862 
	C1064.635498,2040.583862 1056.095093,2040.583862 1046.735474,2040.583862 
	C1047.229736,2045.011230 1047.437134,2048.920410 1048.129150,2052.741943 
	C1053.375977,2081.720459 1068.066528,2103.744385 1096.639404,2113.621338 
	C1127.804443,2124.394287 1159.112427,2123.123291 1189.063232,2108.939453 
	C1219.648682,2094.455322 1231.701416,2065.770996 1221.715698,2031.591431 
M1873.395386,1934.581421 
	C1876.431396,1931.049438 1879.208130,1927.249023 1882.543335,1924.026611 
	C1919.125732,1888.682251 1975.413086,1902.922119 1990.334717,1951.222534 
	C1991.189575,1953.989746 1992.152100,1956.723999 1992.940674,1959.099854 
	C2001.939087,1959.099854 2010.095093,1959.099854 2018.262451,1959.099854 
	C2016.933350,1929.124756 1999.405273,1902.222168 1973.109741,1890.381226 
	C1934.351074,1872.928223 1868.563599,1876.697510 1840.051514,1939.666016 
	C1828.162964,1965.921509 1825.700317,1993.543945 1829.081055,2021.815063 
	C1831.650635,2043.304321 1838.325806,2063.469727 1851.323242,2081.022217 
	C1874.858765,2112.806152 1907.305054,2124.369629 1945.391235,2119.028809 
	C1983.565674,2113.675537 2005.818848,2089.247803 2016.695557,2053.432129 
	C2018.591553,2047.188599 2019.590210,2040.672607 2021.201660,2033.385620 
	C2011.673706,2033.385620 2003.539429,2033.385620 1995.073730,2033.385620 
	C1993.946777,2038.406982 1993.118652,2043.299072 1991.742310,2048.031738 
	C1983.518677,2076.310547 1958.166016,2101.628174 1919.733765,2096.027832 
	C1894.490356,2092.349854 1876.839233,2077.597168 1866.621216,2055.149414 
	C1848.187988,2014.653564 1849.064575,1974.481567 1873.395386,1934.581421 
M728.547791,2092.958252 
	C728.547852,2061.958496 728.466125,2030.958130 728.610413,1999.958862 
	C728.642944,1992.980591 729.081177,1985.955688 729.986816,1979.037964 
	C734.627808,1943.586182 760.693665,1917.464111 796.016052,1912.689819 
	C800.229309,1912.120361 804.504700,1912.011108 809.156067,1911.657837 
	C809.156067,1902.691528 809.156067,1894.198364 809.156067,1885.130127 
	C800.680237,1883.799561 792.825989,1885.272949 785.164978,1887.084229 
	C760.466431,1892.923340 743.518188,1908.426147 732.150085,1930.622070 
	C730.771973,1933.313110 729.297546,1935.954956 727.867737,1938.619507 
	C727.191711,1938.376343 726.515625,1938.133179 725.839600,1937.890015 
	C725.839600,1921.420410 725.839600,1904.950928 725.839600,1888.309082 
	C717.360962,1888.309082 709.774902,1888.309082 701.629272,1888.309082 
	C701.629272,1963.500366 701.629272,2038.339966 701.629272,2113.335449 
	C710.701660,2113.335449 719.202515,2113.335449 728.548035,2113.335449 
	C728.548035,2106.817383 728.548035,2100.877930 728.547791,2092.958252 
M1744.981201,2094.870117 
	C1744.981079,2063.234131 1744.929688,2031.598022 1745.024170,1999.962280 
	C1745.043091,1993.646606 1745.300415,1987.297363 1745.991455,1981.023438 
	C1749.998901,1944.650757 1776.274292,1917.581421 1812.206665,1912.699341 
	C1816.414429,1912.127808 1820.684937,1912.018555 1825.366089,1911.661255 
	C1825.975830,1902.444214 1826.233765,1893.711792 1825.283081,1884.621582 
	C1813.060059,1884.574707 1802.278564,1886.041138 1791.848633,1889.885742 
	C1781.053833,1893.864746 1771.234253,1899.622314 1763.693726,1908.269897 
	C1756.685669,1916.307129 1750.688721,1925.225830 1743.612305,1934.596313 
	C1741.933228,1918.575073 1744.006470,1903.391968 1742.240356,1887.980713 
	C1735.058716,1887.980713 1728.752197,1887.954590 1722.446411,1888.002930 
	C1721.188354,1888.012695 1719.932373,1888.306274 1718.293579,1888.518555 
	C1718.293579,1963.640503 1718.293579,2038.346436 1718.293579,2113.290283 
	C1727.311279,2113.290283 1735.734741,2113.290283 1744.980469,2113.290283 
	C1744.980469,2107.384277 1744.980469,2102.102783 1744.981201,2094.870117 
z"/>
<path fill="#FDFEFC" opacity="1.000000" stroke="none" 
	d="
M544.285522,1887.414307 
	C558.359863,1893.191162 568.030151,1902.994751 577.259155,1914.480469 
	C577.259155,1906.058838 577.259155,1897.637207 577.259155,1888.600708 
	C596.951050,1888.600708 615.712524,1888.600708 635.478638,1888.600708 
	C635.478638,1892.319946 635.478638,1895.570679 635.478638,1898.821533 
	C635.478516,1964.154663 635.635620,2029.488403 635.327576,2094.820068 
	C635.274536,2106.072998 634.214783,2117.516846 631.938599,2128.524902 
	C625.977783,2157.352783 609.129822,2178.038086 581.587524,2188.625488 
	C547.875366,2201.584473 513.353027,2202.958984 478.780243,2191.820312 
	C463.627350,2186.938232 450.346466,2178.710205 440.157349,2166.179688 
	C430.894592,2154.788086 425.850525,2141.816162 425.394073,2126.561279 
	C445.501190,2126.561279 464.734711,2126.561279 484.059143,2126.561279 
	C484.502960,2127.062256 485.147827,2127.472656 485.317810,2128.028564 
	C489.514740,2141.750244 498.010162,2151.497803 512.036560,2155.309570 
	C528.388733,2159.753174 544.487061,2159.505615 558.953552,2149.232666 
	C569.380615,2141.828125 574.589355,2130.895264 575.900879,2118.643799 
	C577.377747,2104.847656 577.404541,2090.895996 578.152771,2075.097168 
	C575.520264,2076.832764 574.392395,2077.237549 573.769836,2078.036133 
	C555.197876,2101.867188 530.018982,2109.738770 501.100342,2107.188721 
	C464.131866,2103.928711 439.160248,2083.975830 426.897949,2049.349854 
	C414.008850,2012.954102 413.487061,1976.014648 428.247314,1939.920898 
	C440.784821,1909.262817 462.771667,1888.754272 496.350128,1883.041870 
	C512.302368,1880.328003 528.238586,1881.078125 544.285522,1887.414307 
M483.990875,1959.447021 
	C475.145538,1982.905640 475.604950,2006.437744 484.267731,2029.718628 
	C489.363129,2043.412476 498.407562,2053.735107 512.990723,2058.147949 
	C538.081970,2065.740234 562.335754,2054.046875 571.789551,2028.586670 
	C580.996704,2003.790527 579.401733,1978.729492 569.142395,1954.573364 
	C555.237183,1921.832886 506.648529,1921.476440 489.982391,1948.494629 
	C488.064178,1951.604126 486.353271,1954.841553 483.990875,1959.447021 
z"/>
<path fill="#FDFEFC" opacity="1.000000" stroke="none" 
	d="
M178.332535,2085.433594 
	C170.318283,2068.798584 169.480606,2051.948242 172.594406,2034.952148 
	C176.153656,2015.524902 187.743713,2002.060059 205.666367,1993.928589 
	C221.669189,1986.668091 238.831696,1984.377930 255.994278,1982.073975 
	C266.220581,1980.701172 276.467560,1979.472046 286.673706,1977.964966 
	C290.607849,1977.384033 294.530823,1976.454956 298.327454,1975.265015 
	C311.360291,1971.180298 316.657837,1964.852295 316.762299,1953.641479 
	C316.897247,1939.157471 311.078705,1929.837402 298.642365,1925.814575 
	C286.662262,1921.939331 274.332611,1921.679932 262.173096,1924.810425 
	C250.539246,1927.805908 243.447144,1935.774902 240.229599,1947.237183 
	C239.336823,1950.417725 238.669037,1953.661377 237.815186,1957.221436 
	C217.985947,1957.221436 198.470871,1957.221436 177.768311,1957.221436 
	C178.154160,1952.738281 178.118576,1948.522705 178.931000,1944.477417 
	C183.574417,1921.355347 196.841888,1904.782471 217.809586,1894.277954 
	C230.458939,1887.940918 243.986404,1884.432373 257.978363,1883.028931 
	C282.316498,1880.588135 306.635742,1880.681152 330.233490,1887.966187 
	C338.695526,1890.578491 347.042511,1894.494507 354.473572,1899.309937 
	C367.465820,1907.729004 374.445221,1920.443115 376.173462,1935.849365 
	C376.728851,1940.800293 376.935089,1945.813599 376.943512,1950.798950 
	C377.005493,1987.439697 376.855743,2024.081055 377.029083,2060.720947 
	C377.112488,2078.343994 377.134888,2096.033936 383.477020,2113.489746 
	C363.382355,2113.489746 343.849854,2113.489746 323.206299,2113.489746 
	C321.783661,2107.431641 320.302704,2101.125000 318.618103,2093.951416 
	C316.864044,2095.132812 315.293976,2096.039795 313.891296,2097.156738 
	C283.161499,2121.627930 248.821808,2125.715088 212.184647,2114.415527 
	C197.316833,2109.829834 186.152039,2099.905273 178.332535,2085.433594 
M251.449814,2076.226318 
	C259.365417,2076.745605 267.352844,2078.203369 275.182831,2077.604248 
	C296.489594,2075.974121 309.911469,2064.533936 314.878967,2044.440918 
	C318.088623,2031.458130 316.658508,2018.249512 316.659149,2004.062012 
	C303.606110,2010.929565 290.458160,2012.410278 277.403717,2014.664062 
	C267.349762,2016.399658 257.162201,2018.801392 247.796310,2022.726196 
	C235.468628,2027.891968 230.600296,2038.508667 231.210678,2051.819336 
	C231.784805,2064.339844 237.953079,2072.271484 251.449814,2076.226318 
z"/>
<path fill="#FBFDF9" opacity="1.000000" stroke="none" 
	d="
M1562.572876,1882.153076 
	C1575.135010,1882.535400 1586.942383,1881.847046 1598.357056,1883.647705 
	C1635.783081,1889.551880 1654.806763,1911.923584 1655.781006,1949.932739 
	C1656.037109,1959.925903 1655.836670,1969.930664 1655.837524,1979.930176 
	C1655.839966,2009.262085 1655.835938,2038.594116 1655.842041,2067.926025 
	C1655.842529,2070.592041 1655.733276,2073.271484 1655.953125,2075.921631 
	C1656.754150,2085.579346 1661.934326,2090.390137 1671.493896,2090.362793 
	C1673.808350,2090.356201 1676.121582,2089.972900 1679.204834,2089.692871 
	C1679.204834,2096.984131 1679.204834,2104.062012 1679.204834,2111.398926 
	C1671.223267,2114.730957 1662.886230,2114.625244 1654.680542,2113.342285 
	C1641.254883,2111.242920 1634.296753,2103.390869 1632.254028,2088.965820 
	C1631.709717,2085.123047 1631.478271,2081.236084 1630.881470,2075.083252 
	C1627.618896,2079.153809 1625.602661,2081.511719 1623.756592,2083.996338 
	C1598.225220,2118.355957 1553.494995,2130.329834 1514.004517,2113.349854 
	C1489.742310,2102.917725 1476.235718,2080.708984 1476.990356,2052.487549 
	C1477.775879,2023.104736 1490.380981,2005.478760 1518.107300,1995.093994 
	C1535.422852,1988.608643 1553.635864,1986.430786 1571.803223,1984.083862 
	C1582.706177,1982.675537 1593.654541,1981.593018 1604.529663,1980.002808 
	C1622.655762,1977.352173 1629.223877,1969.526978 1629.280640,1951.106934 
	C1629.356079,1926.648315 1618.168945,1912.484375 1594.185669,1907.196533 
	C1581.360229,1904.368652 1568.312256,1904.165161 1555.430298,1906.507446 
	C1532.490967,1910.678467 1519.289185,1924.355713 1514.999390,1947.564697 
	C1514.457397,1950.496704 1514.068604,1953.457275 1513.511475,1957.028076 
	C1504.670654,1957.028076 1495.915039,1957.028076 1487.170776,1957.028076 
	C1486.544678,1927.622314 1502.554688,1901.460083 1528.914673,1890.686401 
	C1539.249390,1886.462646 1550.697266,1884.962646 1562.572876,1882.153076 
M1613.903931,2070.804443 
	C1623.977295,2058.877686 1628.781738,2044.902344 1629.349854,2029.497803 
	C1629.730103,2019.184326 1629.478027,2008.845459 1629.397095,1998.518799 
	C1629.380493,1996.415894 1628.864502,1994.316895 1628.725464,1993.294678 
	C1620.954224,1995.785400 1613.914673,1998.807373 1606.565063,2000.246826 
	C1587.957520,2003.891235 1569.048340,2006.112305 1550.584229,2010.325073 
	C1540.380981,2012.653076 1530.482544,2017.159302 1521.090088,2021.946289 
	C1512.802246,2026.170288 1507.895996,2033.861206 1505.757324,2043.141479 
	C1499.868286,2068.696045 1516.911011,2092.886475 1544.001709,2096.021973 
	C1570.659058,2099.107178 1594.077148,2091.645508 1613.903931,2070.804443 
z"/>
<path fill="#FCFDFA" opacity="1.000000" stroke="none" 
	d="
M899.506226,2118.667969 
	C869.700195,2113.470215 848.816284,2097.508057 835.216980,2071.689453 
	C827.028870,2056.144043 822.716553,2039.408325 820.958740,2022.078613 
	C817.885620,1991.780884 820.564148,1962.259033 833.928833,1934.299194 
	C860.403442,1878.912720 917.966797,1873.918579 954.942688,1888.438477 
	C975.047852,1896.333496 989.287598,1911.052979 999.213379,1929.911011 
	C1011.939209,1954.089233 1015.975098,1980.164062 1015.423706,2008.573608 
	C1001.299072,2009.322388 987.454102,2008.851440 973.638123,2008.933472 
	C959.312622,2009.018433 944.986206,2008.952393 930.660217,2008.952393 
	C916.667358,2008.952393 902.674500,2008.952393 888.681641,2008.952393 
	C874.800049,2008.952393 860.918396,2008.952271 846.225159,2008.952271 
	C847.880432,2037.342896 854.734802,2061.945312 875.257202,2081.217285 
	C899.745483,2104.213379 956.308289,2105.124268 977.608337,2063.188477 
	C981.347595,2055.826660 984.075500,2047.951172 987.494263,2039.778076 
	C995.701294,2039.778076 1004.273621,2039.778076 1013.719116,2039.778076 
	C1013.190735,2042.440918 1012.986145,2045.003296 1012.161926,2047.347900 
	C1009.297974,2055.494629 1006.825317,2063.855713 1003.114685,2071.614258 
	C988.712952,2101.726562 963.888794,2116.948730 931.238342,2119.617676 
	C921.036072,2120.452148 910.659973,2119.160156 899.506226,2118.667969 
M923.000000,1985.767700 
	C944.452087,1985.766357 965.904175,1985.764893 987.306335,1985.763428 
	C987.539368,1962.560181 978.051086,1938.516479 963.409851,1923.675049 
	C942.928101,1902.912842 909.962524,1898.583374 885.476440,1914.323730 
	C859.983582,1930.711304 850.479614,1956.228882 846.190308,1985.767578 
	C871.885864,1985.767578 896.442932,1985.767578 923.000000,1985.767700 
z"/>
<path fill="#FCFDFA" opacity="1.000000" stroke="none" 
	d="
M1344.211304,1881.876587 
	C1354.430908,1882.668579 1363.892090,1882.568481 1372.917969,1884.501221 
	C1391.060303,1888.386108 1406.238647,1897.887573 1417.923218,1912.393555 
	C1440.442993,1940.351440 1446.179321,1973.171631 1445.894653,2008.846191 
	C1389.486450,2008.846191 1333.953125,2008.846191 1277.091064,2008.846191 
	C1277.376221,2014.274170 1277.371094,2018.764771 1277.887817,2023.194458 
	C1279.809448,2039.664429 1285.291260,2054.803711 1294.430420,2068.749023 
	C1320.589966,2108.666016 1390.162354,2107.155518 1410.396484,2058.625244 
	C1412.941284,2052.521729 1415.200684,2046.298950 1417.742554,2039.744263 
	C1426.251709,2039.744263 1434.776855,2039.744263 1443.315918,2039.744263 
	C1442.280762,2071.678467 1415.500000,2105.837158 1383.777222,2115.445312 
	C1363.603394,2121.555908 1342.997192,2122.138916 1322.539673,2117.164551 
	C1295.170776,2110.509277 1275.395264,2093.721436 1264.166748,2068.225830 
	C1245.094727,2024.919922 1244.557251,1980.681152 1263.299316,1937.264404 
	C1278.165039,1902.827515 1305.219360,1883.916260 1344.211304,1881.876587 
M1327.000000,1985.767090 
	C1357.180420,1985.767090 1387.360840,1985.767090 1418.103027,1985.767090 
	C1417.435791,1964.286621 1411.760742,1945.842651 1399.296509,1929.835083 
	C1374.265503,1897.688477 1327.822144,1896.403320 1300.843872,1926.968628 
	C1290.269653,1938.948730 1283.670776,1953.004150 1279.943115,1968.426147 
	C1278.650513,1973.773315 1277.974243,1979.269287 1277.063477,1984.431763 
	C1278.853271,1985.140625 1279.463379,1985.590820 1280.076172,1985.594482 
	C1295.050659,1985.680908 1310.025391,1985.719727 1327.000000,1985.767090 
z"/>
<path fill="#FBFDF9" opacity="1.000000" stroke="none" 
	d="
M2055.738770,1860.000000 
	C2055.739014,1840.398682 2055.739014,1821.797363 2055.739014,1802.561646 
	C2064.942627,1802.561646 2073.424316,1802.561646 2083.243164,1802.561646 
	C2083.243164,1842.295532 2083.243164,1881.947144 2083.243164,1921.598633 
	C2083.938232,1921.751221 2084.633301,1921.903931 2085.328369,1922.056519 
	C2086.448975,1920.223022 2087.539062,1918.369995 2088.695312,1916.558838 
	C2102.879395,1894.340820 2123.600098,1883.423340 2149.496582,1881.917725 
	C2162.874268,1881.140015 2176.125732,1882.397949 2188.933838,1886.734375 
	C2207.106689,1892.887085 2219.539795,1904.905762 2226.335938,1922.912476 
	C2231.356689,1936.216064 2233.118652,1950.094116 2233.199951,1964.088623 
	C2233.477783,2012.062012 2233.329346,2060.038086 2233.316895,2108.012939 
	C2233.316406,2109.617676 2233.026367,2111.222168 2232.819336,2113.362549 
	C2224.208740,2113.362549 2216.049316,2113.362549 2206.544922,2113.362549 
	C2206.544922,2109.679199 2206.544922,2106.133057 2206.544922,2102.587158 
	C2206.544922,2059.609375 2206.534180,2016.631714 2206.551758,1973.654053 
	C2206.556396,1961.953125 2205.824463,1950.371338 2202.191162,1939.118530 
	C2195.789062,1919.291626 2182.237061,1908.166382 2161.613281,1905.788086 
	C2119.822754,1900.968994 2088.633301,1926.972900 2084.037109,1970.515503 
	C2083.339355,1977.125977 2083.153564,1983.815186 2083.138672,1990.468872 
	C2083.056396,2027.782593 2083.099121,2065.096680 2083.099365,2102.410645 
	C2083.099365,2105.989014 2083.099609,2109.567383 2083.099609,2113.543945 
	C2073.702148,2113.543945 2065.477295,2113.543945 2057.451660,2113.543945 
	C2057.002930,2113.135254 2056.722168,2112.937744 2056.520264,2112.678711 
	C2056.328857,2112.433350 2056.093262,2112.124023 2056.092773,2111.842285 
	C2055.962158,2028.228149 2055.850830,1944.614136 2055.738770,1860.000000 
z"/>
<path fill="#FBFDF9" opacity="1.000000" stroke="none" 
	d="
M1221.932373,2032.352539 
	C1231.701416,2065.770996 1219.648682,2094.455322 1189.063232,2108.939453 
	C1159.112427,2123.123291 1127.804443,2124.394287 1096.639404,2113.621338 
	C1068.066528,2103.744385 1053.375977,2081.720459 1048.129150,2052.741943 
	C1047.437134,2048.920410 1047.229736,2045.011230 1046.735474,2040.583862 
	C1056.095093,2040.583862 1064.635498,2040.583862 1073.457642,2040.583862 
	C1074.027588,2043.340454 1074.620972,2045.890869 1075.076782,2048.465576 
	C1079.679321,2074.464844 1095.427979,2089.925781 1120.835571,2095.071533 
	C1141.371704,2099.230957 1161.418091,2096.930176 1179.584717,2085.577393 
	C1195.034912,2075.922119 1201.121948,2059.694336 1196.169556,2043.361694 
	C1193.023315,2032.985718 1185.732544,2026.137451 1176.284668,2022.214844 
	C1166.199219,2018.027466 1155.589722,2014.978882 1145.030273,2012.085449 
	C1129.642456,2007.869019 1114.039551,2004.437988 1098.646484,2000.239014 
	C1093.565430,1998.853149 1088.772339,1996.288330 1083.979614,1993.987427 
	C1044.878662,1975.215576 1047.835815,1919.769653 1076.813232,1899.230225 
	C1089.370972,1890.329346 1103.225342,1885.206177 1118.270020,1883.093262 
	C1136.647095,1880.512085 1154.839478,1881.014893 1172.425293,1887.785645 
	C1200.203369,1898.480713 1216.501343,1922.765869 1216.177979,1953.534302 
	C1208.058838,1953.534302 1199.910278,1953.534302 1191.170044,1953.534302 
	C1190.877441,1952.625366 1190.318604,1951.473633 1190.145752,1950.266479 
	C1186.757202,1926.615479 1174.777466,1913.021729 1151.753174,1907.338623 
	C1137.557983,1903.834717 1123.290649,1904.185669 1109.339966,1908.600586 
	C1104.646362,1910.085938 1100.086548,1912.439575 1095.939331,1915.127075 
	C1079.119019,1926.027588 1073.656006,1955.897705 1097.054810,1969.471436 
	C1106.134155,1974.738525 1116.426270,1978.304077 1126.571289,1981.248047 
	C1139.652100,1985.043945 1153.214722,1987.147217 1166.424561,1990.544067 
	C1174.447021,1992.607300 1182.525269,1995.032959 1189.996826,1998.536011 
	C1204.654175,2005.408203 1215.763550,2016.141235 1221.932373,2032.352539 
z"/>
<path fill="#FBFDF8" opacity="1.000000" stroke="none" 
	d="
M1872.966309,1935.164673 
	C1849.064575,1974.481567 1848.187988,2014.653564 1866.621216,2055.149414 
	C1876.839233,2077.597168 1894.490356,2092.349854 1919.733765,2096.027832 
	C1958.166016,2101.628174 1983.518677,2076.310547 1991.742310,2048.031738 
	C1993.118652,2043.299072 1993.946777,2038.406982 1995.073730,2033.385620 
	C2003.539429,2033.385620 2011.673706,2033.385620 2021.201660,2033.385620 
	C2019.590210,2040.672607 2018.591553,2047.188599 2016.695557,2053.432129 
	C2005.818848,2089.247803 1983.565674,2113.675537 1945.391235,2119.028809 
	C1907.305054,2124.369629 1874.858765,2112.806152 1851.323242,2081.022217 
	C1838.325806,2063.469727 1831.650635,2043.304321 1829.081055,2021.815063 
	C1825.700317,1993.543945 1828.162964,1965.921509 1840.051514,1939.666016 
	C1868.563599,1876.697510 1934.351074,1872.928223 1973.109741,1890.381226 
	C1999.405273,1902.222168 2016.933350,1929.124756 2018.262451,1959.099854 
	C2010.095093,1959.099854 2001.939087,1959.099854 1992.940674,1959.099854 
	C1992.152100,1956.723999 1991.189575,1953.989746 1990.334717,1951.222534 
	C1975.413086,1902.922119 1919.125732,1888.682251 1882.543335,1924.026611 
	C1879.208130,1927.249023 1876.431396,1931.049438 1872.966309,1935.164673 
z"/>
<path fill="#FDFEFC" opacity="1.000000" stroke="none" 
	d="
M728.547913,2093.948242 
	C728.548035,2100.877930 728.548035,2106.817383 728.548035,2113.335449 
	C719.202515,2113.335449 710.701660,2113.335449 701.629272,2113.335449 
	C701.629272,2038.339966 701.629272,1963.500366 701.629272,1888.309082 
	C709.774902,1888.309082 717.360962,1888.309082 725.839600,1888.309082 
	C725.839600,1904.950928 725.839600,1921.420410 725.839600,1937.890015 
	C726.515625,1938.133179 727.191711,1938.376343 727.867737,1938.619507 
	C729.297546,1935.954956 730.771973,1933.313110 732.150085,1930.622070 
	C743.518188,1908.426147 760.466431,1892.923340 785.164978,1887.084229 
	C792.825989,1885.272949 800.680237,1883.799561 809.156067,1885.130127 
	C809.156067,1894.198364 809.156067,1902.691528 809.156067,1911.657837 
	C804.504700,1912.011108 800.229309,1912.120361 796.016052,1912.689819 
	C760.693665,1917.464111 734.627808,1943.586182 729.986816,1979.037964 
	C729.081177,1985.955688 728.642944,1992.980591 728.610413,1999.958862 
	C728.466125,2030.958130 728.547852,2061.958496 728.547913,2093.948242 
z"/>
<path fill="#FDFEFB" opacity="1.000000" stroke="none" 
	d="
M1744.980835,2095.845703 
	C1744.980469,2102.102783 1744.980469,2107.384277 1744.980469,2113.290283 
	C1735.734741,2113.290283 1727.311279,2113.290283 1718.293579,2113.290283 
	C1718.293579,2038.346436 1718.293579,1963.640503 1718.293579,1888.518555 
	C1719.932373,1888.306274 1721.188354,1888.012695 1722.446411,1888.002930 
	C1728.752197,1887.954590 1735.058716,1887.980713 1742.240356,1887.980713 
	C1744.006470,1903.391968 1741.933228,1918.575073 1743.612305,1934.596313 
	C1750.688721,1925.225830 1756.685669,1916.307129 1763.693726,1908.269897 
	C1771.234253,1899.622314 1781.053833,1893.864746 1791.848633,1889.885742 
	C1802.278564,1886.041138 1813.060059,1884.574707 1825.283081,1884.621582 
	C1826.233765,1893.711792 1825.975830,1902.444214 1825.366089,1911.661255 
	C1820.684937,1912.018555 1816.414429,1912.127808 1812.206665,1912.699341 
	C1776.274292,1917.581421 1749.998901,1944.650757 1745.991455,1981.023438 
	C1745.300415,1987.297363 1745.043091,1993.646606 1745.024170,1999.962280 
	C1744.929688,2031.598022 1744.981079,2063.234131 1744.980835,2095.845703 
z"/>
<path fill="#71B903" opacity="1.000000" stroke="none" 
	d="
M484.268555,1958.733398 
	C486.353271,1954.841553 488.064178,1951.604126 489.982391,1948.494629 
	C506.648529,1921.476440 555.237183,1921.832886 569.142395,1954.573364 
	C579.401733,1978.729492 580.996704,2003.790527 571.789551,2028.586670 
	C562.335754,2054.046875 538.081970,2065.740234 512.990723,2058.147949 
	C498.407562,2053.735107 489.363129,2043.412476 484.267731,2029.718628 
	C475.604950,2006.437744 475.145538,1982.905640 484.268555,1958.733398 
z"/>
<path fill="#72B904" opacity="1.000000" stroke="none" 
	d="
M250.650833,2076.060547 
	C237.953079,2072.271484 231.784805,2064.339844 231.210678,2051.819336 
	C230.600296,2038.508667 235.468628,2027.891968 247.796310,2022.726196 
	C257.162201,2018.801392 267.349762,2016.399658 277.403717,2014.664062 
	C290.458160,2012.410278 303.606110,2010.929565 316.659149,2004.062012 
	C316.658508,2018.249512 318.088623,2031.458130 314.878967,2044.440918 
	C309.911469,2064.533936 296.489594,2075.974121 275.182831,2077.604248 
	C267.352844,2078.203369 259.365417,2076.745605 250.650833,2076.060547 
z"/>
<path fill="#72B904" opacity="1.000000" stroke="none" 
	d="
M1613.433228,2071.344238 
	C1594.077148,2091.645508 1570.659058,2099.107178 1544.001709,2096.021973 
	C1516.911011,2092.886475 1499.868286,2068.696045 1505.757324,2043.141479 
	C1507.895996,2033.861206 1512.802246,2026.170288 1521.090088,2021.946289 
	C1530.482544,2017.159302 1540.380981,2012.653076 1550.584229,2010.325073 
	C1569.048340,2006.112305 1587.957520,2003.891235 1606.565063,2000.246826 
	C1613.914673,1998.807373 1620.954224,1995.785400 1628.725464,1993.294678 
	C1628.864502,1994.316895 1629.380493,1996.415894 1629.397095,1998.518799 
	C1629.478027,2008.845459 1629.730103,2019.184326 1629.349854,2029.497803 
	C1628.781738,2044.902344 1623.977295,2058.877686 1613.433228,2071.344238 
z"/>
<path fill="#72B904" opacity="1.000000" stroke="none" 
	d="
M922.000000,1985.767578 
	C896.442932,1985.767578 871.885864,1985.767578 846.190308,1985.767578 
	C850.479614,1956.228882 859.983582,1930.711304 885.476440,1914.323730 
	C909.962524,1898.583374 942.928101,1902.912842 963.409851,1923.675049 
	C978.051086,1938.516479 987.539368,1962.560181 987.306335,1985.763428 
	C965.904175,1985.764893 944.452087,1985.766357 922.000000,1985.767578 
z"/>
<path fill="#72B904" opacity="1.000000" stroke="none" 
	d="
M1326.000000,1985.767090 
	C1310.025391,1985.719727 1295.050659,1985.680908 1280.076172,1985.594482 
	C1279.463379,1985.590820 1278.853271,1985.140625 1277.063477,1984.431763 
	C1277.974243,1979.269287 1278.650513,1973.773315 1279.943115,1968.426147 
	C1283.670776,1953.004150 1290.269653,1938.948730 1300.843872,1926.968628 
	C1327.822144,1896.403320 1374.265503,1897.688477 1399.296509,1929.835083 
	C1411.760742,1945.842651 1417.435791,1964.286621 1418.103027,1985.767090 
	C1387.360840,1985.767090 1357.180420,1985.767090 1326.000000,1985.767090 
z"/>
</svg>